<svg width="954" height="287" viewBox="0 0 954 287" fill="none" xmlns="http://www.w3.org/2000/svg">
<path d="M299.76 230.076H335.661V156.881C335.661 140.961 347.291 130.012 363.134 130.012C368.106 130.012 374.931 130.854 378.303 131.949V100.11C375.1 99.3522 370.633 98.8467 367.01 98.8467C352.515 98.8467 340.632 107.27 335.914 123.273H334.564V100.7H299.76V230.076ZM449.83 232.603C481.853 232.603 503.427 217.021 508.484 193.015L475.282 190.825C471.658 200.68 462.386 205.818 450.421 205.818C432.47 205.818 421.093 193.942 421.093 174.653V174.569H509.243V164.714C509.243 120.746 482.612 99.0151 448.396 99.0151C410.305 99.0151 385.613 126.053 385.613 165.978C385.613 206.997 409.968 232.603 449.83 232.603ZM421.093 152.332C421.85 137.592 433.059 125.8 448.987 125.8C464.579 125.8 475.365 136.918 475.45 152.332H421.093ZM568.572 57.5742H532.671V230.076H568.572V57.5742ZM634.241 232.519C653.371 232.519 665.759 224.18 672.078 212.135H673.092V230.076H707.137V142.814C707.137 111.987 681.013 99.0151 652.192 99.0151C621.179 99.0151 600.785 113.84 595.813 137.424L629.016 140.119C631.46 131.528 639.13 125.211 652.023 125.211C664.242 125.211 671.236 131.359 671.236 141.972V142.478C671.236 150.816 662.389 151.911 639.887 154.101C614.269 156.46 591.261 165.051 591.261 193.942C591.261 219.548 609.549 232.519 634.241 232.519ZM644.522 207.755C633.482 207.755 625.56 202.617 625.56 192.763C625.56 182.655 633.904 177.685 646.546 175.917C654.382 174.822 667.192 172.969 671.49 170.105V183.834C671.49 197.395 660.282 207.755 644.522 207.755ZM803.84 100.7H779.487V69.7034H743.586V100.7H725.887V127.653H743.586V195.037C743.417 220.39 760.694 232.94 786.734 231.845C796.004 231.508 802.577 229.655 806.201 228.476L800.555 201.775C798.785 202.112 794.993 202.954 791.62 202.954C784.458 202.954 779.487 200.259 779.487 190.32V127.653H803.84V100.7ZM884.828 232.603C916.851 232.603 938.425 217.021 943.482 193.015L910.277 190.825C906.653 200.68 897.384 205.818 885.416 205.818C867.468 205.818 856.091 193.942 856.091 174.653V174.569H944.239V164.714C944.239 120.746 917.61 99.0151 883.394 99.0151C845.303 99.0151 820.611 126.053 820.611 165.978C820.611 206.997 844.966 232.603 884.828 232.603ZM856.091 152.332C856.848 137.592 868.057 125.8 883.985 125.8C899.574 125.8 910.363 136.918 910.446 152.332H856.091Z" fill="#E6E5EA"/>
<path d="M118.657 263.28C184.189 263.28 237.313 210.183 237.313 144.685C237.313 79.1867 184.189 26.0898 118.657 26.0898C53.1244 26.0898 0 79.1867 0 144.685C0 210.183 53.1244 263.28 118.657 263.28Z" fill="#1890FF"/>
<path d="M98.7067 117.197C101.411 112.343 104.529 108.509 108.061 105.696C111.593 102.883 115.732 101.477 120.479 101.477C124.342 101.477 127.488 102.387 129.916 104.207L128.426 121.086C128.15 122.189 127.708 122.961 127.101 123.403C126.549 123.789 125.777 123.982 124.783 123.982C123.9 123.982 122.631 123.872 120.975 123.651C119.32 123.375 117.774 123.237 116.34 123.237C114.242 123.237 112.366 123.541 110.71 124.147C109.11 124.754 107.675 125.609 106.405 126.712C105.136 127.816 103.977 129.167 102.928 130.767C101.935 132.366 100.997 134.187 100.114 136.228V188.437H77.2656V103.131H90.7593C93.0773 103.131 94.6778 103.545 95.5608 104.372C96.4439 105.2 97.0785 106.634 97.4648 108.675L98.7067 117.197Z" fill="white"/>
<path d="M129.98 176.442C129.98 174.621 130.312 172.911 130.974 171.312C131.691 169.657 132.657 168.25 133.871 167.092C135.085 165.878 136.493 164.941 138.093 164.279C139.749 163.562 141.543 163.203 143.474 163.203C145.351 163.203 147.117 163.562 148.772 164.279C150.428 164.941 151.863 165.878 153.077 167.092C154.291 168.25 155.229 169.657 155.892 171.312C156.609 172.911 156.968 174.621 156.968 176.442C156.968 178.317 156.609 180.055 155.892 181.654C155.229 183.254 154.291 184.661 153.077 185.874C151.863 187.032 150.428 187.943 148.772 188.605C147.117 189.267 145.351 189.597 143.474 189.597C141.543 189.597 139.749 189.267 138.093 188.605C136.493 187.943 135.085 187.032 133.871 185.874C132.657 184.661 131.691 183.254 130.974 181.654C130.312 180.055 129.98 178.317 129.98 176.442Z" fill="white"/>
</svg>
