<svg xmlns="http://www.w3.org/2000/svg" width="935" height="238"><g><path d="M 0 237.56 L 0 0 L 934.4 0 L 934.4 237.56 Z" fill="transparent"></path><path d="M 309.15 199.37 L 309.15 57.87 L 341.49 57.87 L 341.49 81.46 L 342.96 81.46 C 345.54 73.29 349.98 66.98 356.27 62.53 C 362.57 58.08 369.77 55.85 377.87 55.85 C 379.71 55.85 381.78 55.93 384.09 56.08 C 386.39 56.23 388.31 56.47 389.85 56.77 L 389.85 87.45 C 388.44 86.96 386.21 86.51 383.17 86.11 C 380.13 85.71 377.2 85.51 374.37 85.51 C 368.29 85.51 362.84 86.81 358.02 89.42 C 353.2 92.03 349.41 95.64 346.64 100.24 C 343.88 104.85 342.49 110.16 342.49 116.18 L 342.49 199.37 L 309.14 199.37 Z" fill="rgb(0,0,0)"></path><path d="M 455.83 202.14 C 441.64 202.14 429.4 199.18 419.12 193.25 C 408.83 187.32 400.93 178.91 395.4 168.01 C 389.87 157.11 387.11 144.26 387.11 129.45 C 387.11 114.64 389.89 102.1 395.45 91.08 C 401.01 80.06 408.79 71.46 418.8 65.28 C 428.81 59.11 440.57 56.02 454.08 56.02 C 462.8 56.02 471.05 57.42 478.82 60.21 C 486.59 63.01 493.47 67.32 499.46 73.15 C 505.45 78.99 510.16 86.4 513.6 95.4 C 517.04 104.4 518.76 115.1 518.76 127.51 L 518.76 137.74 L 402.77 137.74 L 402.77 115.26 L 486.79 115.26 C 486.73 108.87 485.34 103.18 482.64 98.17 C 479.94 93.16 476.18 89.22 471.36 86.33 C 466.54 83.44 460.93 82 454.55 82 C 447.73 82 441.74 83.65 436.58 86.93 C 431.42 90.21 427.41 94.51 424.56 99.83 C 421.7 105.14 420.24 110.96 420.18 117.29 L 420.18 136.91 C 420.18 145.14 421.68 152.19 424.69 158.05 C 427.7 163.91 431.91 168.4 437.31 171.5 C 442.71 174.6 449.04 176.15 456.29 176.15 C 461.14 176.15 465.53 175.46 469.46 174.08 C 473.39 172.7 476.8 170.66 479.69 167.95 C 482.58 165.25 484.76 161.9 486.23 157.91 L 517.37 161.41 C 515.4 169.64 511.67 176.81 506.18 182.92 C 500.68 189.03 493.67 193.76 485.13 197.11 C 476.59 200.46 466.83 202.13 455.83 202.13 Z" fill="rgb(0,0,0)"></path><path d="M 567.32 10.7 L 567.32 199.37 L 533.97 199.37 L 533.97 10.7 Z" fill="rgb(0,0,0)"></path><path d="M 629.34 202.23 C 620.37 202.23 612.31 200.62 605.16 197.39 C 598.01 194.16 592.36 189.39 588.21 183.06 C 584.06 176.73 581.99 168.94 581.99 159.66 C 581.99 151.68 583.46 145.07 586.41 139.85 C 589.36 134.63 593.38 130.45 598.48 127.32 C 603.58 124.19 609.34 121.81 615.75 120.18 C 622.17 118.55 628.82 117.37 635.7 116.63 C 643.99 115.77 650.72 114.99 655.88 114.28 C 661.04 113.57 664.8 112.47 667.17 110.96 C 669.53 109.46 670.72 107.11 670.72 103.91 L 670.72 103.36 C 670.72 96.42 668.66 91.05 664.55 87.24 C 660.43 83.43 654.51 81.53 646.77 81.53 C 638.6 81.53 632.14 83.31 627.38 86.87 C 622.62 90.43 619.41 94.64 617.75 99.49 L 586.61 95.07 C 589.07 86.47 593.12 79.27 598.77 73.47 C 604.42 67.67 611.33 63.31 619.5 60.39 C 627.67 57.47 636.7 56.02 646.59 56.02 C 653.41 56.02 660.19 56.82 666.95 58.41 C 673.71 60.01 679.88 62.63 685.47 66.29 C 691.06 69.94 695.56 74.9 698.97 81.17 C 702.38 87.44 704.08 95.27 704.08 104.66 L 704.08 199.37 L 672.02 199.37 L 672.02 179.93 L 670.92 179.93 C 668.89 183.86 666.05 187.53 662.4 190.94 C 658.75 194.35 654.17 197.08 648.67 199.14 C 643.17 201.2 636.74 202.23 629.37 202.23 Z M 638 177.72 C 644.69 177.72 650.5 176.38 655.41 173.71 C 660.32 171.04 664.12 167.49 666.79 163.07 C 669.46 158.65 670.79 153.83 670.79 148.61 L 670.79 131.93 C 669.75 132.79 667.98 133.59 665.49 134.33 C 663 135.07 660.22 135.71 657.15 136.26 C 654.08 136.81 651.03 137.3 648.03 137.73 C 645.02 138.16 642.41 138.53 640.2 138.84 C 635.23 139.52 630.77 140.62 626.84 142.16 C 622.91 143.7 619.81 145.83 617.54 148.56 C 615.27 151.29 614.13 154.81 614.13 159.11 C 614.13 165.25 616.37 169.89 620.85 173.02 C 625.33 176.15 631.04 177.72 637.99 177.72 Z" fill="rgb(0,0,0)"></path><path d="M 795.37 57.87 L 795.37 83.67 L 714.02 83.67 L 714.02 57.87 Z M 734.1 23.97 L 767.45 23.97 L 767.45 156.82 C 767.45 161.3 768.14 164.73 769.52 167.09 C 770.9 169.46 772.73 171.07 775 171.93 C 777.27 172.79 779.79 173.22 782.55 173.22 C 784.64 173.22 786.56 173.07 788.31 172.76 C 790.06 172.45 791.4 172.18 792.32 171.93 L 797.94 198 C 796.16 198.61 793.62 199.29 790.34 200.03 C 787.05 200.77 783.05 201.2 778.32 201.32 C 769.97 201.56 762.44 200.29 755.75 197.5 C 749.05 194.7 743.76 190.36 739.86 184.46 C 735.96 178.56 734.04 171.19 734.1 162.35 L 734.1 23.96 Z" fill="rgb(0,0,0)"></path><path d="M 871.48 202.14 C 857.29 202.14 845.05 199.18 834.77 193.25 C 824.48 187.32 816.58 178.91 811.05 168.01 C 805.52 157.11 802.76 144.26 802.76 129.45 C 802.76 114.64 805.54 102.1 811.1 91.08 C 816.66 80.06 824.44 71.46 834.45 65.28 C 844.46 59.11 856.22 56.02 869.73 56.02 C 878.45 56.02 886.7 57.42 894.47 60.21 C 902.24 63.01 909.12 67.32 915.11 73.15 C 921.1 78.99 925.81 86.4 929.25 95.4 C 932.69 104.4 934.41 115.1 934.41 127.51 L 934.41 137.74 L 818.42 137.74 L 818.42 115.26 L 902.44 115.26 C 902.38 108.87 901 103.18 898.29 98.17 C 895.59 93.16 891.83 89.22 887.01 86.33 C 882.19 83.44 876.58 82 870.2 82 C 863.38 82 857.4 83.65 852.24 86.93 C 847.08 90.21 843.07 94.51 840.22 99.83 C 837.37 105.14 835.9 110.96 835.85 117.29 L 835.85 136.91 C 835.85 145.14 837.35 152.19 840.36 158.05 C 843.37 163.92 847.58 168.4 852.98 171.5 C 858.39 174.6 864.71 176.15 871.96 176.15 C 876.81 176.15 881.2 175.46 885.13 174.08 C 889.06 172.7 892.47 170.66 895.36 167.95 C 898.25 165.25 900.43 161.9 901.9 157.91 L 933.04 161.41 C 931.07 169.64 927.34 176.81 921.85 182.92 C 916.35 189.03 909.34 193.76 900.8 197.11 C 892.26 200.46 882.5 202.13 871.5 202.13 Z" fill="rgb(0,0,0)"></path><path d="M 118.78 237.56 C 184.38 237.56 237.56 184.38 237.56 118.78 C 237.56 53.18 184.38 0 118.78 0 C 53.18 0 0 53.18 0 118.78 C 0 184.38 53.18 237.56 118.78 237.56 Z" fill="rgb(59,130,246)"></path><path d="M 137.17 196.37 L 64.51 196.37 L 64.51 189.17 C 64.51 152.15 83.98 125.37 111.5 109.39 C 110.1 105.34 108.55 101.5 106.85 97.92 C 95.82 104.15 85.28 108.62 75.42 108.32 C 59.73 107.81 51.62 96.8 50.56 86.12 C 49.45 74.98 55.95 61.91 70.52 58.48 C 80.9 56.03 91.25 58.59 100.45 65.87 C 104.54 69.11 108.34 73.23 111.82 78.15 C 113.05 77.38 114.28 76.61 115.52 75.83 C 134.96 63.64 156.98 49.82 179.7 49.82 L 186.9 49.82 L 186.9 106.3 L 179.7 106.3 C 161.79 106.3 144.04 110.01 128.72 116.77 C 134.2 137.11 137.17 161.75 137.17 189.17 Z M 79.2 181.98 L 122.7 181.98 C 122.28 162.66 120.13 141.94 115.66 123.66 C 114.18 124.58 112.73 125.54 111.33 126.53 C 97.65 136.18 81.54 153.44 79.2 181.98 Z M 119.12 90.57 C 121.01 94.41 122.76 98.55 124.37 102.95 C 139.29 96.55 155.83 92.9 172.5 92.09 L 172.5 64.8 C 156.17 67.33 139.43 77.83 123.16 88.03 C 121.8 88.88 120.45 89.73 119.11 90.57 Z M 78.12 71.98 C 76.7 71.98 75.26 72.15 73.83 72.49 C 66.97 74.11 64.4 79.78 64.89 84.69 C 65.1 86.78 66.51 93.63 75.9 93.94 C 82.45 94.16 90.58 90.6 99.54 85.55 C 97.1 82.28 94.43 79.46 91.53 77.16 C 87.18 73.72 82.69 71.99 78.13 71.99 Z" fill="rgb(255,255,255)"></path></g></svg>